<?xml version="1.0" encoding="UTF-8"?>
<svg width="164px" height="23px" viewBox="0 0 164 23" version="1.1" xmlns="http://www.w3.org/2000/svg" xmlns:xlink="http://www.w3.org/1999/xlink">
    <title>OUBJECTS</title>
    <g id="Page-1" stroke="none" stroke-width="1" fill="none" fill-rule="evenodd">
        <g id="Medium" transform="translate(-640.000000, -69.000000)" fill="#A83731" fill-rule="nonzero">
            <g id="OUBJECTS" transform="translate(640.640000, 69.240000)">
                <path d="M10.784,22.08 C17.568,22.08 21.536,17.728 21.536,11.04 C21.536,4.352 17.568,-1.42108547e-14 10.784,-1.42108547e-14 C3.968,-1.42108547e-14 -1.13686838e-13,4.352 -1.13686838e-13,11.04 C-1.13686838e-13,17.728 3.968,22.08 10.784,22.08 Z M10.784,16.224 C7.456,16.224 6.464,15.168 6.464,11.04 C6.464,6.912 7.456,5.856 10.784,5.856 C14.08,5.856 15.072,6.912 15.072,11.04 C15.072,15.168 14.08,16.224 10.784,16.224 Z" id="Shape"></path>
                <path d="M32.544,22.08 C39.168,22.08 42.208,18.688 42.208,13.472 L42.208,0.32 L36.192,0.32 L36.192,13.152 C36.192,15.552 35.616,16.224 32.544,16.224 C29.472,16.224 28.896,15.552 28.896,13.152 L28.896,0.32 L22.88,0.32 L22.88,13.472 C22.88,18.688 25.92,22.08 32.544,22.08 Z" id="Path"></path>
                <path d="M56.448,21.76 C61.696,21.76 64.096,19.552 64.096,15.808 C64.096,12.928 62.336,10.72 58.72,10.592 L58.72,10.176 C61.664,9.92 63.104,8.288 63.104,5.6 C63.104,1.952 60.704,0.32 55.808,0.32 L44.416,0.32 L44.416,21.76 L56.448,21.76 Z M50.432,5.728 L55.36,5.728 C56.608,5.728 57.088,5.952 57.088,7.104 C57.088,8.192 56.736,8.48 55.488,8.48 L50.432,8.48 L50.432,5.728 Z M50.432,13.152 L56.224,13.152 C57.44,13.152 57.984,13.344 57.984,14.784 C57.984,16.192 57.376,16.352 56.224,16.352 L50.432,16.352 L50.432,13.152 Z" id="Shape"></path>
                <path d="M73.472,22.08 C79.648,22.08 82.272,18.944 82.272,13.12 L82.272,0.32 L75.84,0.32 L75.84,13.856 C75.84,15.744 75.424,16.224 73.248,16.224 C71.104,16.224 70.656,15.744 70.656,13.856 L70.656,12.704 L64.256,12.704 L64.256,13.984 C64.256,19.264 67.04,22.08 73.472,22.08 Z" id="Path"></path>
                <polygon id="Path" points="101.824 21.76 101.824 16.352 90.528 16.352 90.528 13.696 101.344 13.696 101.344 8.32 90.528 8.32 90.528 5.728 101.824 5.728 101.824 0.32 84.512 0.32 84.512 21.76"></polygon>
                <path d="M113.664,22.08 C120.448,22.08 123.744,18.56 123.744,13.568 L123.744,12.832 L117.312,12.832 L117.312,12.928 C117.312,15.392 116.512,16.224 113.536,16.224 C110.464,16.224 109.472,15.488 109.472,11.04 C109.472,6.592 110.464,5.856 113.536,5.856 C116.512,5.856 117.312,6.688 117.312,9.152 L117.312,9.248 L123.744,9.248 L123.744,8.512 C123.744,3.52 120.448,-1.42108547e-14 113.664,-1.42108547e-14 C106.752,-1.42108547e-14 103.008,4.352 103.008,11.04 C103.008,17.728 106.752,22.08 113.664,22.08 Z" id="Path"></path>
                <polygon id="Path" points="136.672 21.76 136.672 5.728 143.264 5.728 143.264 0.32 124.064 0.32 124.064 5.728 130.656 5.728 130.656 21.76"></polygon>
                <path d="M153.664,22.08 C160.096,22.08 162.656,18.848 162.656,15.104 C162.656,11.776 160.896,9.408 156.352,8.608 L151.68,7.776 C150.432,7.552 150.016,7.264 150.016,6.592 C150.016,5.792 150.592,5.408 152.864,5.408 C155.552,5.408 156.16,5.92 156.16,7.168 L156.16,7.552 L162.08,7.552 L162.08,7.008 C162.08,3.008 159.232,-1.42108547e-14 153.248,-1.42108547e-14 C146.944,-1.42108547e-14 144.032,3.008 144.032,6.816 C144.032,10.144 145.824,12.448 150.176,13.12 L154.848,13.856 C156.32,14.08 156.64,14.4 156.64,15.392 C156.64,16.32 156.16,16.672 153.888,16.672 C151.008,16.672 150.368,16.32 150.368,14.56 L150.368,14.304 L144.448,14.304 L144.448,14.72 C144.448,19.2 147.52,22.08 153.664,22.08 Z" id="Path"></path>
            </g>
        </g>
    </g>
</svg>